<svg xmlns="http://www.w3.org/2000/svg" viewBox="0 0 1200 750" fill="none">
<rect width="1200" height="750" fill="#1e1b4b"/>
<circle cx="1050" cy="120" r="140" fill="#0ea5e9" fill-opacity="0.1"/>
<rect x="0" y="0" width="1200" height="56" fill="#09090b"/>
<circle cx="28" cy="28" r="6" fill="#ef4444"/><circle cx="52" cy="28" r="6" fill="#eab308"/><circle cx="76" cy="28" r="6" fill="#22c55e"/>
<rect x="120" y="18" width="960" height="20" rx="10" fill="#27272a"/>
<text x="48" y="110" font-family="system-ui,sans-serif" font-size="32" font-weight="700" fill="#fafaf9">Diskominfo Web</text>
<text x="48" y="148" font-family="system-ui,sans-serif" font-size="18" fill="#a1a1aa">Mobile View — Screenshot 3</text>
<rect x="420" y="140" width="360" height="520" rx="16" fill="#18181b" stroke="#3f3f46"/>
<rect x="444" y="180" width="120" height="10" rx="5" fill="#3f3f46"/><rect x="444" y="216" width="180" height="8" rx="4" fill="#3f3f46"/><rect x="444" y="300" width="312" height="120" rx="12" fill="#27272a" stroke="#3f3f46"/><rect x="460" y="320" width="100" height="8" rx="4" fill="#52525b"/><rect x="460" y="340" width="60" height="24" rx="6" fill="#0ea5e9" fill-opacity="0.8"/><rect x="772" y="300" width="312" height="120" rx="12" fill="#27272a" stroke="#3f3f46"/><rect x="788" y="320" width="100" height="8" rx="4" fill="#52525b"/><rect x="788" y="340" width="60" height="24" rx="6" fill="#0ea5e9" fill-opacity="0.8"/>
<rect x="444" y="604" width="120" height="36" rx="18" fill="#0ea5e9"/>
</svg>