<svg xmlns="http://www.w3.org/2000/svg" viewBox="0 0 1200 750" fill="none">
<rect width="1200" height="750" fill="#18181b"/>
<circle cx="1050" cy="120" r="140" fill="#f59e0b" fill-opacity="0.1"/>
<rect x="0" y="0" width="1200" height="56" fill="#09090b"/>
<circle cx="28" cy="28" r="6" fill="#ef4444"/><circle cx="52" cy="28" r="6" fill="#eab308"/><circle cx="76" cy="28" r="6" fill="#22c55e"/>
<rect x="120" y="18" width="960" height="20" rx="10" fill="#27272a"/>
<text x="48" y="110" font-family="system-ui,sans-serif" font-size="32" font-weight="700" fill="#fafaf9">Corporate Site</text>
<text x="48" y="148" font-family="system-ui,sans-serif" font-size="18" fill="#a1a1aa">Homepage — Screenshot 1</text>
<rect x="48" y="200" width="1104" height="480" rx="16" fill="#18181b" stroke="#3f3f46"/>
<rect x="72" y="240" width="200" height="12" rx="6" fill="#3f3f46"/><rect x="72" y="276" width="320" height="8" rx="4" fill="#3f3f46"/><rect x="72" y="312" width="280" height="8" rx="4" fill="#3f3f46"/><rect x="72" y="360" width="341" height="200" rx="12" fill="#27272a" stroke="#3f3f46"/><rect x="88" y="380" width="100" height="8" rx="4" fill="#52525b"/><rect x="88" y="400" width="60" height="24" rx="6" fill="#f59e0b" fill-opacity="0.8"/><rect x="429" y="360" width="341" height="200" rx="12" fill="#27272a" stroke="#3f3f46"/><rect x="445" y="380" width="100" height="8" rx="4" fill="#52525b"/><rect x="445" y="400" width="60" height="24" rx="6" fill="#f59e0b" fill-opacity="0.8"/><rect x="786" y="360" width="341" height="200" rx="12" fill="#27272a" stroke="#3f3f46"/><rect x="802" y="380" width="100" height="8" rx="4" fill="#52525b"/><rect x="802" y="400" width="60" height="24" rx="6" fill="#f59e0b" fill-opacity="0.8"/>
<rect x="72" y="624" width="120" height="36" rx="18" fill="#f59e0b"/>
</svg>